Coordinates
version=1
nRows=13
nColumns=36
inDegrees=yes

Units are S.I. units (second, meters, Newtons, ...)
If the header above contains a line with 'inDegrees', this indicates whether rotational values are in degrees (yes) or radians (no).

endheader
time	pelvis_tilt	pelvis_list	pelvis_rotation	pelvis_tx	pelvis_ty	pelvis_tz	hip_flexion_r	hip_adduction_r	hip_rotation_r	knee_angle_r	knee_angle_r_beta	ankle_angle_r	subtalar_angle_r	mtp_angle_r	hip_flexion_l	hip_adduction_l	hip_rotation_l	knee_angle_l	knee_angle_l_beta	ankle_angle_l	subtalar_angle_l	mtp_angle_l	lumbar_extension	lumbar_bending	lumbar_rotation	arm_flex_r	arm_add_r	arm_rot_r	elbow_flex_r	pro_sup_r	arm_flex_l	arm_add_l	arm_rot_l	elbow_flex_l	pro_sup_l
      1.78000000	    -11.16106197	      0.79664472	     -0.65179685	     -0.25850436	      0.72894473	     -0.62183139	     68.08008694	     -9.06346532	     -0.64100462	     99.43774979	      1.73551613	     39.53308677	     -7.22617481	     -7.48392707	     68.87752996	     -3.14304935	      2.21734173	     98.68725414	      1.72241751	     38.41195990	     -8.57870816	     -7.48392707	    -33.37516460	      0.20848306	     -7.22135111	     49.38503306	    -28.67780922	      6.42107474	    100.59835757	    105.42816781	     41.29018878	    -33.36010341	      1.99499760	     96.12219438	     97.24371043
      1.79000000	    -11.32974808	      0.68209631	     -0.36767052	     -0.25720817	      0.74054812	     -0.62148154	     66.74029815	     -8.91129748	     -1.00582316	     97.26434961	      1.69758315	     38.91527160	     -7.83251873	     -7.48417844	     67.78909627	     -3.04310627	      2.26393957	     96.58861194	      1.68578930	     37.75169171	     -8.63634607	     -7.48417844	    -32.50811284	      0.33177477	     -7.58991776	     54.00532316	    -30.40816513	      8.09586025	    101.57440481	    105.47843101	     47.02617580	    -35.48237631	      5.21179007	     95.83661646	     97.34094672
      1.80000000	    -11.36723490	      0.61766212	     -0.03805896	     -0.25545018	      0.75295860	     -0.62132810	     65.14677691	     -8.85034382	     -1.33449496	     94.95695451	      1.65731150	     38.25166137	     -8.35218637	     -7.48447789	     66.54524376	     -2.84843589	      2.27995790	     94.41364736	      1.64782901	     36.79321909	     -8.81541554	     -7.48447789	    -31.71459297	      0.40225373	     -7.99097975	     58.82915725	    -32.29952924	      9.84185996	    102.59105447	    105.40007077	     53.30231885	    -37.42086961	      8.87783059	     95.42061952	     97.34272414
      1.81000000	    -11.44657482	      0.65332531	      0.25070240	     -0.25321883	      0.76600649	     -0.62112472	     63.53067156	     -8.87301481	     -1.61323370	     92.48207650	      1.61411673	     37.58732194	     -8.73971636	     -7.48482228	     65.18193598	     -2.64783119	      2.20663770	     92.09222810	      1.60731260	     35.88486065	     -8.93780627	     -7.48482228	    -30.82415456	      0.37341525	     -8.26787641	     63.75650138	    -34.04326007	     11.26534804	    103.70600377	    105.22002742	     59.87544436	    -38.83063371	     12.61446456	     94.63762886	     97.23239584
      1.82000000	    -11.40614698	      0.67245134	      0.66473747	     -0.25038125	      0.78002296	     -0.62100397	     61.64882705	     -9.04697698	     -2.03041729	     89.88187308	      1.56873462	     36.76800673	     -8.80568421	     -7.48503976	     63.48748391	     -2.41371945	      2.18051147	     89.46916338	      1.56153148	     34.87879127	     -8.60575566	     -7.48503976	    -30.05266176	      0.47273330	     -8.88751982	     69.09854755	    -35.53707008	     13.19605620	    104.63176979	    105.14175501	     66.23279294	    -40.29267269	     15.85509769	     94.26464289	     97.17306569
      1.83000000	    -11.30724225	      0.70742111	      0.96121202	     -0.24704062	      0.79486730	     -0.62065996	     59.63158790	     -9.10306672	     -2.40732121	     87.09086314	      1.52002231	     35.79541685	     -8.95551731	     -7.48524047	     61.51194026	     -2.32213623	      2.04602672	     86.57341753	      1.51099118	     34.00590372	     -8.43548987	     -7.48524047	    -29.23928359	      0.46889458	     -9.35926145	     74.68103747	    -36.89459142	     15.27404481	    104.86839207	    105.02535492	     72.76984546	    -41.41674667	     19.55307011	     93.71020844	     97.06542636
      1.84000000	    -11.25080762	      0.68566800	      1.15162613	     -0.24308034	      0.81059790	     -0.61998621	     57.52647454	     -9.00042672	     -2.84029742	     84.03434331	      1.46667598	     34.65274352	     -9.26574654	     -7.48546356	     59.41998703	     -2.43786830	      1.82554331	     83.43037991	      1.45613483	     33.04071467	     -8.36019969	     -7.48546356	    -28.29759888	      0.39556999	     -9.65983327	     80.11590139	    -38.17775464	     17.41935478	    104.74310400	    104.82781556	     79.44129080	    -42.11850706	     23.59735487	     93.03553331	     96.85608004
      1.85000000	    -11.47948647	      0.66545287	      1.25780352	     -0.23861108	      0.82687552	     -0.61895223	     55.63744858	     -8.75269084	     -3.23534231	     80.71166142	      1.40868424	     33.08568512	    -10.04468229	     -7.48729030	     57.52189705	     -2.66029710	      1.50482902	     80.05361973	      1.39719924	     31.79618422	     -8.52590723	     -7.48729030	    -26.99171846	      0.05467169	     -9.34649192	     84.74160400	    -40.18503079	     19.02253025	    105.14351943	    102.45142728	     86.49154755	    -41.75942019	     28.63418820	     92.03847548	     93.89503048
      1.86000000	    -11.45552803	      0.61167532	      1.37528616	     -0.23322384	      0.84466535	     -0.61829260	     53.26526066	     -8.61586190	     -3.85468698	     77.10138463	      1.34567302	     31.55896963	    -10.39125847	     -7.48761356	     55.21625826	     -2.90914392	      1.08091788	     76.44454343	      1.33420898	     30.43816146	     -8.36296569	     -7.48761356	    -25.86401359	      0.10081197	    -10.04414696	     89.98519258	    -40.30729576	     21.67746214	    104.20538236	    102.13253691	     92.09549395	    -42.77594335	     31.93402336	     92.21461436	     93.67665776
      1.87000000	    -11.62217606	      0.56515332	      1.50315543	     -0.22727716	      0.86341338	     -0.61764699	     50.95361087	     -8.52790829	     -4.62201821	     73.15151546	      1.27673480	     29.24124915	    -10.95234474	     -7.48860786	     52.99831990	     -3.10806966	      0.61819804	     72.55986013	      1.26640846	     28.44353017	     -8.44302206	     -7.48860786	    -24.42576202	      0.07657127	    -10.79767284	     94.21183528	    -40.13457319	     23.71137623	    103.37034603	    100.70853458	     97.25620588	    -43.57528069	     35.17621275	     92.65280760	     92.53113757
      1.88000000	    -11.70561812	      0.51055678	      1.59553681	     -0.22053651	      0.88365810	     -0.61711939	     48.35196878	     -8.46385353	     -5.54454189	     68.86575292	      1.20193413	     26.99281034	    -10.73769111	     -7.48916321	     50.45722805	     -3.28183488	      0.13073153	     68.29161493	      1.19191353	     26.36792381	     -8.16215994	     -7.48916321	    -22.95455277	      0.03403378	    -11.14042346	     97.54971744	    -40.37279070	     25.31689626	    103.00940997	     99.79937665	    101.06820731	    -43.36835371	     36.91433854	     93.13986983	     91.89476995
      1.89000000	    -11.94339117	      0.46163078	      1.62417406	     -0.21331728	      0.90498210	     -0.61649708	     45.77891099	     -8.27536992	     -6.41584167	     64.15277060	      1.11967707	     23.68938467	    -11.31928157	     -7.48980498	     47.87493370	     -3.44027906	     -0.43139778	     63.54386622	      1.10904968	     23.33647003	     -8.64848794	     -7.48980498	    -21.13647095	     -0.06412597	    -11.47862572	     99.78820652	    -40.40397816	     26.49005689	    102.62905534	     99.09734527	    104.24742109	    -43.55376173	     39.24727732	     93.71848468	     91.38013592
      1.90000000	    -11.96773212	      0.45963649	      1.63475557	     -0.20513878	      0.92817695	     -0.61609696	     42.75200264	     -8.15974885	     -7.32284889	     59.01987969	      1.03009122	     20.40165835	    -10.63545523	     -7.49021708	     44.77434673	     -3.53700916	     -1.02478442	     58.29684076	      1.01747181	     20.14070820	     -8.15830213	     -7.49021708	    -19.46643184	     -0.16651762	    -11.54010973	    100.98860852	    -40.71941621	     27.03338426	    103.00206059	     98.59091958	    105.69841022	    -43.59834193	     39.96859602	     94.97549905	     91.06566204
